<svg data-v-423bf9ae="" xmlns="http://www.w3.org/2000/svg" viewBox="0 0 248.49445887974332 60" class="font"><!----><!----><!----><g data-v-423bf9ae="" id="d6a3eb69-b5c6-46a0-83a0-5cdf3696f4de" fill="white" transform="matrix(5.714285850524902,0,0,5.714285850524902,-6.057149410247803,-1.2000010013580322)"><path d="M2.72 10.50L3.54 6.10L7.97 6.10L8.26 4.62L3.84 4.62L4.35 1.90L9.62 1.90L9.91 0.42L3.00 0.42L1.06 10.50ZM10.67 10.50L12.64 0.21L10.98 0.77L9.11 10.50ZM18.23 3.22L17.47 7.18C17.19 8.64 16.23 9.41 15.22 9.41C14.22 9.41 14.08 8.75 14.29 7.63L15.13 3.22L13.58 3.22L12.73 7.69C12.39 9.42 12.68 10.71 14.70 10.71C15.65 10.71 16.46 10.28 17.16 9.45L16.97 10.50L18.40 10.50L19.78 3.22ZM23.41 10.50L27.61 3.22L26.05 3.22L23.04 8.65L22.15 3.22L20.57 3.22L22.02 10.50ZM30.42 2.00L30.72 0.42L29.16 0.42L28.87 2.00ZM28.78 10.50L30.17 3.22L28.62 3.22L27.23 10.50ZM36.30 3.22L35.55 7.18C35.27 8.64 34.30 9.41 33.29 9.41C32.30 9.41 32.16 8.75 32.37 7.63L33.21 3.22L31.65 3.22L30.80 7.69C30.46 9.42 30.76 10.71 32.77 10.71C33.73 10.71 34.54 10.28 35.24 9.45L35.04 10.50L36.47 10.50L37.86 3.22ZM38.11 8.40C37.95 9.83 38.93 10.71 40.71 10.71C42.32 10.71 43.86 10.04 44.17 8.43C44.44 7.03 43.57 6.52 42.74 6.30L40.88 5.84C40.49 5.74 40.17 5.52 40.26 5.11C40.36 4.56 41.08 4.26 41.86 4.26C42.66 4.26 43.19 4.56 43.11 5.33L44.49 5.33C44.79 3.99 43.88 3.01 42.14 3.01C40.60 3.01 39.14 3.65 38.82 5.22C38.60 6.43 39.34 6.96 40.25 7.20L42.01 7.64C42.59 7.80 42.80 8.05 42.70 8.53C42.56 9.25 41.66 9.46 40.99 9.46C39.94 9.46 39.52 8.90 39.55 8.18L38.11 8.40Z"></path></g><!----><!----></svg>